<?xml version="1.0" encoding="utf-8"?>
<!-- Generator: Adobe Illustrator 19.0.0, SVG Export Plug-In . SVG Version: 6.00 Build 0)  -->
<svg version="1.1" id="Capa_1" xmlns="http://www.w3.org/2000/svg" xmlns:xlink="http://www.w3.org/1999/xlink" x="0px" y="0px"
	 viewBox="-279 373.2 52.4 46.8" style="enable-background:new -279 373.2 52.4 46.8;" xml:space="preserve" width="52" height="45">
<style type="text/css">
	.st0{fill:url(#SVGID_1_);}
	.st1{fill:url(#SVGID_2_);}
</style>
<linearGradient id="SVGID_1_" gradientUnits="userSpaceOnUse" x1="-278.2398" y1="407.908" x2="-227.3602" y2="407.908" gradientTransform="matrix(1 0 0 -1 0 794.4)">
	<stop  offset="0" style="stop-color:#FF9B20"/>
	<stop  offset="1" style="stop-color:#F46500"/>
</linearGradient>
<path class="st0" d="M-227.7,396.2l-1.6,1.8c-0.6,0.7-1.7,0.8-2.4,0.2l-21.1-17.7l-21,17.7c-0.8,0.6-1.9,0.5-2.5-0.2l-1.5-1.7
	c-0.6-0.8-0.5-1.9,0.2-2.5l21.4-18.1l0.1-0.1c0,0,0.1-0.1,0.2-0.1c0,0,0,0,0.1,0c0.1-0.1,0.2-0.1,0.3-0.2c0.9-0.6,3.2-1.9,5.6,0.1
	l0,0l21.9,18.4C-227.2,394.4-227.1,395.5-227.7,396.2z"/>
<linearGradient id="SVGID_2_" gradientUnits="userSpaceOnUse" x1="-269.0222" y1="398.2085" x2="-237.1718" y2="378.3772" gradientTransform="matrix(1 0 0 -1 0 794.4)">
	<stop  offset="0" style="stop-color:#FF9B20"/>
	<stop  offset="1" style="stop-color:#F46500"/>
</linearGradient>
<path class="st1" d="M-252.7,383.3l-18.5,15.7v17.9c0,0,0.4,1.9,2.4,1.9s31.9,0,31.9,0s3.2,0.3,3.2-2.4c0-2.7,0-17.2,0-17.2
	L-252.7,383.3z M-248.6,395.1c1.4,0,2.6,1.1,2.6,2.6c0,1.4-1.2,2.6-2.6,2.6s-2.6-1.1-2.6-2.6S-250,395.1-248.6,395.1z M-256,395.1
	c1.4,0,2.6,1.1,2.6,2.6c0,1.4-1.2,2.6-2.6,2.6s-2.6-1.1-2.6-2.6S-257.4,395.1-256,395.1z M-262,404.1c-1.1,0-2-0.9-2-2s0.9-2,2-2
	s2,0.9,2,2S-260.9,404.1-262,404.1z M-251.4,414.2l-1.1,1.1l-1.1-1.1c-4-3.5-6.5-5.9-6.5-8.7c0-2.4,1.8-4.2,4.2-4.2
	c1.3,0,2.6,0.6,3.4,1.6c0.8-1,2.1-1.6,3.4-1.6c2.4,0,4.2,1.8,4.2,4.2C-244.8,408.3-247.4,410.7-251.4,414.2z M-242.9,404.1
	c-1.1,0-2-0.9-2-2s0.9-2,2-2c1.1,0,2,0.9,2,2S-241.8,404.1-242.9,404.1z"/>
</svg>
